<svg preserveAspectRatio="none" width="100%" height="100%" overflow="visible" style="display: block;" viewBox="0 0 64 64" fill="none" xmlns="http://www.w3.org/2000/svg">
<g id="Strategy">
<path id="Vector" d="M26 47C26 48.78 25.4722 50.5201 24.4832 52.0001C23.4943 53.4802 22.0887 54.6337 20.4442 55.3149C18.7996 55.9961 16.99 56.1743 15.2442 55.8271C13.4984 55.4798 11.8947 54.6226 10.636 53.364C9.37737 52.1053 8.5202 50.5016 8.17293 48.7558C7.82567 47.01 8.0039 45.2004 8.68508 43.5559C9.36627 41.9113 10.5198 40.5057 11.9999 39.5168C13.4799 38.5278 15.22 38 17 38C19.3869 38 21.6761 38.9482 23.364 40.636C25.0518 42.3239 26 44.6131 26 47ZM8.585 29.415C8.77075 29.601 8.99132 29.7485 9.23412 29.8491C9.47692 29.9498 9.73717 30.0016 10 30.0016C10.2628 30.0016 10.5231 29.9498 10.7659 29.8491C11.0087 29.7485 11.2293 29.601 11.415 29.415L15 25.8275L18.585 29.415C18.9603 29.7903 19.4693 30.0011 20 30.0011C20.5307 30.0011 21.0397 29.7903 21.415 29.415C21.7903 29.0397 22.0011 28.5307 22.0011 28C22.0011 27.4693 21.7903 26.9603 21.415 26.585L17.8275 23L21.415 19.415C21.7903 19.0397 22.0011 18.5307 22.0011 18C22.0011 17.4693 21.7903 16.9603 21.415 16.585C21.0397 16.2097 20.5307 15.9989 20 15.9989C19.4693 15.9989 18.9603 16.2097 18.585 16.585L15 20.1725L11.415 16.585C11.0397 16.2097 10.5307 15.9989 10 15.9989C9.46927 15.9989 8.96028 16.2097 8.585 16.585C8.20972 16.9603 7.99889 17.4693 7.99889 18C7.99889 18.5307 8.20972 19.0397 8.585 19.415L12.1725 23L8.585 26.585C8.39905 26.7707 8.25153 26.9913 8.15088 27.2341C8.05023 27.4769 7.99843 27.7372 7.99843 28C7.99843 28.2628 8.05023 28.5231 8.15088 28.7659C8.25153 29.0087 8.39905 29.2293 8.585 29.415ZM51.835 47L55.4225 43.415C55.7978 43.0397 56.0086 42.5307 56.0086 42C56.0086 41.4693 55.7978 40.9603 55.4225 40.585C55.0472 40.2097 54.5382 39.9989 54.0075 39.9989C53.4768 39.9989 52.9678 40.2097 52.5925 40.585L49 44.1725L45.415 40.585C45.0397 40.2097 44.5307 39.9989 44 39.9989C43.4693 39.9989 42.9603 40.2097 42.585 40.585C42.2097 40.9603 41.9989 41.4693 41.9989 42C41.9989 42.5307 42.2097 43.0397 42.585 43.415L46.1725 47L42.585 50.585C42.2097 50.9603 41.9989 51.4693 41.9989 52C41.9989 52.5307 42.2097 53.0397 42.585 53.415C42.9603 53.7903 43.4693 54.0011 44 54.0011C44.5307 54.0011 45.0397 53.7903 45.415 53.415L49 49.8275L52.585 53.415C52.7708 53.6008 52.9914 53.7482 53.2342 53.8488C53.477 53.9494 53.7372 54.0011 54 54.0011C54.2628 54.0011 54.523 53.9494 54.7658 53.8488C55.0086 53.7482 55.2292 53.6008 55.415 53.415C55.6008 53.2292 55.7482 53.0086 55.8488 52.7658C55.9493 52.523 56.0011 52.2628 56.0011 52C56.0011 51.7372 55.9493 51.477 55.8488 51.2342C55.7482 50.9914 55.6008 50.7708 55.415 50.585L51.835 47ZM39.415 12.585L38.8275 12H44C44.5304 12 45.0391 11.7893 45.4142 11.4142C45.7893 11.0391 46 10.5304 46 10C46 9.46957 45.7893 8.96086 45.4142 8.58579C45.0391 8.21071 44.5304 8 44 8H34C33.4696 8 32.9609 8.21071 32.5858 8.58579C32.2107 8.96086 32 9.46957 32 10V20C32 20.5304 32.2107 21.0391 32.5858 21.4142C32.9609 21.7893 33.4696 22 34 22C34.5304 22 35.0391 21.7893 35.4142 21.4142C35.7893 21.0391 36 20.5304 36 20V14.8275L36.585 15.415C41.0675 19.8975 41.06 24.265 40.2625 27.14C39.1025 31.3325 35.4225 35.0825 31.5125 36.06C31.039 36.1787 30.6253 36.4664 30.3492 36.869C30.0732 37.2715 29.9539 37.7612 30.0138 38.2456C30.0738 38.73 30.3088 39.1758 30.6747 39.499C31.0405 39.8221 31.5119 40.0003 32 40C32.1685 40.0008 32.3365 39.9806 32.5 39.94C37.8025 38.615 42.5875 33.79 44.1325 28.2075C45.645 22.695 43.975 17.1475 39.415 12.585Z" fill="var(--fill-0, white)"/>
</g>
</svg>
