<svg preserveAspectRatio="none" width="100%" height="100%" overflow="visible" style="display: block;" viewBox="0 0 64 64" fill="none" xmlns="http://www.w3.org/2000/svg">
<g id="UsersFour">
<path id="Vector" d="M57.6 54.7975C57.8236 55.0946 57.9599 55.4482 57.9936 55.8185C58.0274 56.1888 57.9572 56.5612 57.791 56.8939C57.6248 57.2265 57.3692 57.5062 57.0528 57.7016C56.7364 57.897 56.3718 58.0004 56 58H8C7.62858 58 7.26449 57.8966 6.94854 57.7013C6.63259 57.506 6.37725 57.2266 6.21115 56.8944C6.04504 56.5622 5.97473 56.1903 6.00808 55.8204C6.04144 55.4505 6.17715 55.0971 6.4 54.8C8.17096 52.4256 10.5326 50.5562 13.25 49.3775C11.7604 48.018 10.7167 46.2399 10.2559 44.2766C9.79501 42.3133 9.93852 40.2565 10.6676 38.3762C11.3966 36.4959 12.6772 34.88 14.3411 33.7405C16.005 32.6011 17.9746 31.9913 19.9912 31.9913C22.0079 31.9913 23.9775 32.6011 25.6414 33.7405C27.3053 34.88 28.5859 36.4959 29.3149 38.3762C30.044 40.2565 30.1875 42.3133 29.7266 44.2766C29.2658 46.2399 28.2221 48.018 26.7325 49.3775C28.693 50.2249 30.4747 51.4373 31.9825 52.95C33.4903 51.4373 35.272 50.2249 37.2325 49.3775C35.7429 48.018 34.6992 46.2399 34.2384 44.2766C33.7775 42.3133 33.921 40.2565 34.6501 38.3762C35.3791 36.4959 36.6597 34.88 38.3236 33.7405C39.9875 32.6011 41.9571 31.9913 43.9738 31.9913C45.9904 31.9913 47.96 32.6011 49.6239 33.7405C51.2878 34.88 52.5684 36.4959 53.2974 38.3762C54.0265 40.2565 54.17 42.3133 53.7091 44.2766C53.2483 46.2399 52.2046 48.018 50.715 49.3775C53.4451 50.55 55.8193 52.419 57.6 54.7975ZM6.8 31.6C7.01012 31.7576 7.24921 31.8722 7.50364 31.9374C7.75806 32.0026 8.02284 32.017 8.28284 31.9799C8.54285 31.9428 8.79299 31.8548 9.01899 31.7209C9.24498 31.5871 9.44241 31.4101 9.6 31.2C10.8109 29.5855 12.3811 28.275 14.1862 27.3724C15.9913 26.4699 17.9818 26 20 26C22.0182 26 24.0087 26.4699 25.8138 27.3724C27.6189 28.275 29.1891 29.5855 30.4 31.2C30.5863 31.4484 30.8279 31.65 31.1056 31.7889C31.3833 31.9277 31.6895 32 32 32C32.3105 32 32.6167 31.9277 32.8944 31.7889C33.1721 31.65 33.4137 31.4484 33.6 31.2C34.8109 29.5855 36.3811 28.275 38.1862 27.3724C39.9913 26.4699 41.9818 26 44 26C46.0182 26 48.0087 26.4699 49.8138 27.3724C51.6189 28.275 53.1891 29.5855 54.4 31.2C54.5578 31.4101 54.7553 31.5871 54.9815 31.7209C55.2076 31.8546 55.4579 31.9425 55.718 31.9795C55.9782 32.0166 56.243 32.002 56.4975 31.9367C56.752 31.8713 56.9911 31.7565 57.2012 31.5987C57.4114 31.441 57.5883 31.2434 57.7221 31.0173C57.8559 30.7911 57.9438 30.5408 57.9808 30.2807C58.0178 30.0206 58.0032 29.7557 57.9379 29.5012C57.8726 29.2467 57.7577 29.0076 57.6 28.7975C55.829 26.4238 53.4673 24.5552 50.75 23.3775C52.2396 22.018 53.2833 20.2399 53.7441 18.2766C54.205 16.3133 54.0615 14.2565 53.3324 12.3762C52.6034 10.4959 51.3228 8.87999 49.6589 7.74053C47.995 6.60107 46.0254 5.99133 44.0087 5.99133C41.9921 5.99133 40.0225 6.60107 38.3586 7.74053C36.6947 8.87999 35.4141 10.4959 34.6851 12.3762C33.956 14.2565 33.8125 16.3133 34.2734 18.2766C34.7342 20.2399 35.7779 22.018 37.2675 23.3775C35.307 24.2249 33.5253 25.4373 32.0175 26.95C30.5097 25.4373 28.728 24.2249 26.7675 23.3775C28.2571 22.018 29.3008 20.2399 29.7616 18.2766C30.2225 16.3133 30.079 14.2565 29.3499 12.3762C28.6209 10.4959 27.3403 8.87999 25.6764 7.74053C24.0125 6.60107 22.0429 5.99133 20.0263 5.99133C18.0096 5.99133 16.04 6.60107 14.3761 7.74053C12.7122 8.87999 11.4316 10.4959 10.7026 12.3762C9.97352 14.2565 9.83001 16.3133 10.2909 18.2766C10.7517 20.2399 11.7954 22.018 13.285 23.3775C10.5548 24.551 8.18063 26.4208 6.4 28.8C6.24241 29.0101 6.12776 29.2492 6.06257 29.5036C5.99739 29.7581 5.98296 30.0228 6.0201 30.2828C6.05724 30.5428 6.14524 30.793 6.27905 31.019C6.41287 31.245 6.58989 31.4424 6.8 31.6Z" fill="var(--fill-0, white)"/>
</g>
</svg>
