<svg preserveAspectRatio="none" width="100%" height="100%" overflow="visible" style="display: block;" viewBox="0 0 668 107" fill="none" xmlns="http://www.w3.org/2000/svg">
<path id="Union" d="M368.641 106.999C368.733 107 368.826 107 368.918 107H611.068C642.511 107 668 83.0472 668 53.5C668 23.9528 642.511 5.64177e-06 611.068 5.64177e-06H368.918C368.825 5.64177e-06 368.731 0.000223334 368.638 0.000636948C354.026 -0.0663904 339.393 5.15665 328.245 15.6698L310.454 32.4471C299.794 42.5006 285.324 48.15 270.234 48.15H0V59.385H270.801C285.891 59.385 300.361 65.0344 311.021 75.0878L328.245 91.3302C339.394 101.844 354.029 107.067 368.641 106.999Z" fill="var(--fill-0, #14358A)"/>
</svg>
