<svg preserveAspectRatio="none" width="100%" height="100%" overflow="visible" style="display: block;" viewBox="0 0 64 64" fill="none" xmlns="http://www.w3.org/2000/svg">
<g id="ListChecks">
<path id="Vector" d="M23.415 26.585C23.601 26.7707 23.7485 26.9913 23.8491 27.2341C23.9498 27.4769 24.0016 27.7372 24.0016 28C24.0016 28.2628 23.9498 28.5231 23.8491 28.7659C23.7485 29.0087 23.601 29.2293 23.415 29.415L15.415 37.415C15.2293 37.601 15.0087 37.7485 14.7659 37.8491C14.5231 37.9498 14.2628 38.0016 14 38.0016C13.7372 38.0016 13.4769 37.9498 13.2341 37.8491C12.9913 37.7485 12.7707 37.601 12.585 37.415L8.585 33.415C8.39918 33.2292 8.25178 33.0086 8.15121 32.7658C8.05065 32.523 7.99889 32.2628 7.99889 32C7.99889 31.4693 8.20972 30.9603 8.585 30.585C8.96028 30.2097 9.46927 29.9989 10 29.9989C10.5307 29.9989 11.0397 30.2097 11.415 30.585L14 33.1725L20.585 26.585C20.7707 26.399 20.9913 26.2515 21.2341 26.1509C21.4769 26.0502 21.7372 25.9984 22 25.9984C22.2628 25.9984 22.5231 26.0502 22.7659 26.1509C23.0087 26.2515 23.2293 26.399 23.415 26.585ZM20.585 10.585L14 17.1725L11.415 14.585C11.0397 14.2097 10.5307 13.9989 10 13.9989C9.46927 13.9989 8.96028 14.2097 8.585 14.585C8.20972 14.9603 7.99889 15.4693 7.99889 16C7.99889 16.5307 8.20972 17.0397 8.585 17.415L12.585 21.415C12.7707 21.601 12.9913 21.7485 13.2341 21.8491C13.4769 21.9498 13.7372 22.0016 14 22.0016C14.2628 22.0016 14.5231 21.9498 14.7659 21.8491C15.0087 21.7485 15.2293 21.601 15.415 21.415L23.415 13.415C23.7903 13.0397 24.0011 12.5307 24.0011 12C24.0011 11.4693 23.7903 10.9603 23.415 10.585C23.0397 10.2097 22.5307 9.99889 22 9.99889C21.4693 9.99889 20.9603 10.2097 20.585 10.585ZM20.585 42.585L14 49.1725L11.415 46.585C11.2292 46.3992 11.0086 46.2518 10.7658 46.1512C10.523 46.0507 10.2628 45.9989 10 45.9989C9.73721 45.9989 9.47699 46.0507 9.23421 46.1512C8.99142 46.2518 8.77082 46.3992 8.585 46.585C8.39918 46.7708 8.25178 46.9914 8.15121 47.2342C8.05065 47.477 7.99889 47.7372 7.99889 48C7.99889 48.2628 8.05065 48.523 8.15121 48.7658C8.25178 49.0086 8.39918 49.2292 8.585 49.415L12.585 53.415C12.7707 53.601 12.9913 53.7485 13.2341 53.8491C13.4769 53.9498 13.7372 54.0016 14 54.0016C14.2628 54.0016 14.5231 53.9498 14.7659 53.8491C15.0087 53.7485 15.2293 53.601 15.415 53.415L23.415 45.415C23.7903 45.0397 24.0011 44.5307 24.0011 44C24.0011 43.4693 23.7903 42.9603 23.415 42.585C23.0397 42.2097 22.5307 41.9989 22 41.9989C21.4693 41.9989 20.9603 42.2097 20.585 42.585ZM54 12H32C31.4696 12 30.9609 12.2107 30.5858 12.5858C30.2107 12.9609 30 13.4696 30 14V18C30 18.5304 30.2107 19.0391 30.5858 19.4142C30.9609 19.7893 31.4696 20 32 20H54C54.5304 20 55.0391 19.7893 55.4142 19.4142C55.7893 19.0391 56 18.5304 56 18V14C56 13.4696 55.7893 12.9609 55.4142 12.5858C55.0391 12.2107 54.5304 12 54 12ZM54 44H32C31.4696 44 30.9609 44.2107 30.5858 44.5858C30.2107 44.9609 30 45.4696 30 46V50C30 50.5304 30.2107 51.0391 30.5858 51.4142C30.9609 51.7893 31.4696 52 32 52H54C54.5304 52 55.0391 51.7893 55.4142 51.4142C55.7893 51.0391 56 50.5304 56 50V46C56 45.4696 55.7893 44.9609 55.4142 44.5858C55.0391 44.2107 54.5304 44 54 44ZM54 28H32C31.4696 28 30.9609 28.2107 30.5858 28.5858C30.2107 28.9609 30 29.4696 30 30V34C30 34.5304 30.2107 35.0391 30.5858 35.4142C30.9609 35.7893 31.4696 36 32 36H54C54.5304 36 55.0391 35.7893 55.4142 35.4142C55.7893 35.0391 56 34.5304 56 34V30C56 29.4696 55.7893 28.9609 55.4142 28.5858C55.0391 28.2107 54.5304 28 54 28Z" fill="var(--fill-0, white)"/>
</g>
</svg>
