<svg preserveAspectRatio="none" width="100%" height="100%" overflow="visible" style="display: block;" viewBox="0 0 461.676 111.211" fill="none" xmlns="http://www.w3.org/2000/svg">
<path id="Union" d="M408.165 0H180.562C163.969 0 149.139 7.55302 139.324 19.4087L126.857 31.9191C116.837 41.9746 103.236 47.6253 89.0535 47.6253H61.5129C55.535 47.6253 49.8295 50.1251 45.7772 54.5197L1.34194 102.708C0.102914 104.052 -0.316351 105.958 0.244771 107.698C1.43434 111.386 6.15479 112.427 8.78594 109.583L53.5838 61.1527C54.9343 59.6928 56.8328 58.8627 58.8216 58.8627H88.5203C102.703 58.8627 116.304 64.5133 126.324 74.5689L139.324 87.6144C149.139 99.4701 163.969 107.023 180.562 107.023H408.165C437.718 107.023 461.676 83.0651 461.676 53.5116C461.676 23.958 437.718 0 408.165 0Z" fill="var(--fill-0, #14358A)"/>
</svg>
