<svg preserveAspectRatio="none" width="100%" height="100%" overflow="visible" style="display: block;" viewBox="0 0 502 115" fill="none" xmlns="http://www.w3.org/2000/svg">
<path id="Union" d="M443.898 115H196.772C178.754 115 162.653 107.508 151.995 95.7489L138.46 83.3402C127.58 73.3663 112.813 67.7615 97.4129 67.7615H67.5098C61.0192 67.7615 54.8243 65.282 50.4243 60.9231L0 10.9692L3.87346 0L58.9006 54.344C60.3669 55.7921 62.4283 56.6154 64.5877 56.6154H96.834C112.234 56.6154 127.001 51.0106 137.881 41.0367L151.995 28.0972C162.653 16.3378 178.754 8.84615 196.772 8.84615H443.898C475.987 8.84615 502 32.6095 502 61.9231C502 91.2366 475.987 115 443.898 115Z" fill="var(--fill-0, #14358A)"/>
</svg>
