<svg preserveAspectRatio="none" width="100%" height="100%" overflow="visible" style="display: block;" viewBox="0 0 48 48" fill="none" xmlns="http://www.w3.org/2000/svg">
<g id="Wrench">
<path id="Vector" d="M43.5 18C43.5023 20.2452 42.9445 22.4554 41.8773 24.4307C40.8101 26.406 39.2671 28.0839 37.3879 29.3126C35.5088 30.5413 33.3529 31.2819 31.1155 31.4674C28.878 31.6529 26.6296 31.2774 24.5737 30.375L14.8125 41.6663C14.79 41.6925 14.7637 41.7206 14.7394 41.745C13.614 42.8703 12.0877 43.5026 10.4963 43.5026C8.90477 43.5026 7.37847 42.8703 6.25312 41.745C5.12778 40.6197 4.49556 39.0934 4.49556 37.5019C4.49556 35.9104 5.12778 34.3841 6.25312 33.2588C6.27937 33.2344 6.30562 33.2081 6.33375 33.1856L17.625 23.4262C16.6134 21.1121 16.2705 18.5608 16.6353 16.0618C17 13.5627 18.0579 11.2158 19.6888 9.28742C21.3196 7.35902 23.4583 5.92626 25.8621 5.15165C28.266 4.37704 30.8388 4.29159 33.2887 4.905C33.5413 4.9683 33.773 5.09625 33.9611 5.27626C34.1493 5.45627 34.2873 5.68215 34.3616 5.93167C34.436 6.1812 34.4441 6.44578 34.3852 6.69939C34.3263 6.95301 34.2023 7.18692 34.0256 7.37812L27 15L28.0613 19.9406L33 21L40.6219 13.965C40.8131 13.7883 41.047 13.6644 41.3006 13.6055C41.5542 13.5465 41.8188 13.5547 42.0683 13.629C42.3179 13.7034 42.5437 13.8414 42.7237 14.0295C42.9038 14.2176 43.0317 14.4493 43.095 14.7019C43.3642 15.7806 43.5002 16.8882 43.5 18Z" fill="var(--fill-0, white)"/>
</g>
</svg>
