<svg preserveAspectRatio="none" width="100%" height="100%" overflow="visible" style="display: block;" viewBox="0 0 48 48" fill="none" xmlns="http://www.w3.org/2000/svg">
<g id="RocketLaunch">
<path id="Vector" d="M19.4569 34.8637C19.3837 35.1544 17.5556 42 7.5 42C7.10218 42 6.72064 41.842 6.43934 41.5607C6.15804 41.2794 6 40.8978 6 40.5C6 30.4444 12.8456 28.6162 13.1362 28.5431C13.5224 28.4467 13.931 28.5075 14.2723 28.7123C14.6136 28.9172 14.8595 29.2492 14.9559 29.6353C15.0524 30.0214 14.9915 30.4301 14.7867 30.7714C14.5819 31.1126 14.2499 31.3585 13.8638 31.455C13.695 31.5019 9.66 32.6812 9.07125 38.9287C15.3188 38.34 16.5 34.3125 16.5487 34.125C16.6482 33.7394 16.8968 33.409 17.2398 33.2067C17.5828 33.0043 17.9922 32.9465 18.3778 33.0459C18.7635 33.1454 19.0938 33.394 19.2962 33.737C19.4985 34.08 19.5563 34.4894 19.4569 34.875V34.8637ZM36.8944 22.2262L36 23.1206V34.0575C36.0022 34.453 35.9258 34.845 35.7752 35.2106C35.6245 35.5763 35.4027 35.9084 35.1225 36.1875L28.6875 42.6187C28.41 42.8982 28.0799 43.12 27.7163 43.2712C27.3526 43.4225 26.9626 43.5002 26.5687 43.5C26.2437 43.4999 25.9208 43.4474 25.6125 43.3444C25.0832 43.1693 24.6134 42.8496 24.2562 42.4216C23.899 41.9935 23.6687 41.474 23.5912 40.9219L22.5844 33.705L14.295 25.4156L7.08187 24.4087C6.52902 24.3312 6.00876 24.1009 5.57964 23.7439C5.15051 23.3868 4.82953 22.917 4.65282 22.3875C4.4761 21.8579 4.45066 21.2895 4.57935 20.7463C4.70803 20.2031 4.98575 19.7065 5.38125 19.3125L11.8125 12.8775C12.0916 12.5973 12.4237 12.3755 12.7894 12.2248C13.155 12.0742 13.547 11.9978 13.9425 12H24.8794L25.7738 11.1056C30.7763 6.105 36.8025 5.88937 39.1631 6.03C39.8945 6.07445 40.5843 6.38503 41.1025 6.90316C41.6206 7.42128 41.9312 8.11111 41.9756 8.8425C42.1125 11.1956 41.8969 17.2237 36.8962 22.2262H36.8944ZM21.8794 15H13.9425L7.5 21.4387L14.4656 22.41L21.8794 15ZM33 26.1206L25.5881 33.5325L26.5631 40.5L33 34.0575V26.1206Z" fill="var(--fill-0, white)"/>
</g>
</svg>
