<svg preserveAspectRatio="none" width="100%" height="100%" overflow="visible" style="display: block;" viewBox="0 0 48 48" fill="none" xmlns="http://www.w3.org/2000/svg">
<g id="FileSearch">
<path id="Vector" d="M27 27.75C27 28.4917 26.7801 29.2167 26.368 29.8334C25.956 30.4501 25.3703 30.9307 24.6851 31.2145C23.9998 31.4984 23.2458 31.5726 22.5184 31.4279C21.791 31.2833 21.1228 30.9261 20.5983 30.4016C20.0739 29.8772 19.7167 29.209 19.5721 28.4816C19.4274 27.7542 19.5016 27.0002 19.7855 26.3149C20.0693 25.6297 20.5499 25.044 21.1666 24.632C21.7833 24.2199 22.5083 24 23.25 24C24.2446 24 25.1984 24.3951 25.9017 25.0983C26.6049 25.8016 27 26.7554 27 27.75ZM40.5 16.5V40.5C40.5 41.2956 40.1839 42.0587 39.6213 42.6213C39.0587 43.1839 38.2956 43.5 37.5 43.5H10.5C9.70435 43.5 8.94129 43.1839 8.37868 42.6213C7.81607 42.0587 7.5 41.2956 7.5 40.5V7.5C7.5 6.70435 7.81607 5.94129 8.37868 5.37868C8.94129 4.81607 9.70435 4.5 10.5 4.5H28.5C28.697 4.49985 28.8922 4.53851 29.0743 4.6138C29.2564 4.68908 29.4218 4.7995 29.5613 4.93875L40.0613 15.4387C40.2005 15.5782 40.3109 15.7436 40.3862 15.9257C40.4615 16.1078 40.5002 16.303 40.5 16.5ZM31.0613 33.4387L28.9613 31.3406C29.8465 29.9339 30.1824 28.2504 29.9049 26.6117C29.6273 24.973 28.7558 23.4939 27.4567 22.4572C26.1576 21.4205 24.5221 20.8987 22.8626 20.9916C21.2031 21.0845 19.6361 21.7856 18.4608 22.9608C17.2856 24.1361 16.5845 25.7031 16.4916 27.3626C16.3987 29.0221 16.9205 30.6576 17.9572 31.9567C18.9939 33.2558 20.473 34.1273 22.1117 34.4049C23.7504 34.6824 25.4339 34.3465 26.8406 33.4613L28.9387 35.5613C29.0781 35.7006 29.2436 35.8112 29.4257 35.8866C29.6077 35.962 29.8029 36.0008 30 36.0008C30.1971 36.0008 30.3923 35.962 30.5743 35.8866C30.7564 35.8112 30.9219 35.7006 31.0613 35.5613C31.2006 35.4219 31.3112 35.2564 31.3866 35.0743C31.462 34.8923 31.5008 34.6971 31.5008 34.5C31.5008 34.3029 31.462 34.1077 31.3866 33.9257C31.3112 33.7436 31.2006 33.5781 31.0613 33.4387ZM36.75 16.5L28.5 8.25V16.5H36.75Z" fill="var(--fill-0, white)"/>
</g>
</svg>
