<svg preserveAspectRatio="none" width="100%" height="100%" overflow="visible" style="display: block;" viewBox="0 0 48 48" fill="none" xmlns="http://www.w3.org/2000/svg">
<g id="PaintBrush">
<path id="Vector" d="M43.5 6C43.5 5.60218 43.342 5.22064 43.0607 4.93934C42.7794 4.65804 42.3978 4.5 42 4.5C33.735 4.5 25.2544 13.8206 20.5444 19.9931C18.8623 19.478 17.0828 19.3645 15.3488 19.6618C13.6149 19.9591 11.9748 20.6589 10.5604 21.705C9.14599 22.7511 7.9966 24.1143 7.20459 25.6852C6.41257 27.256 5.99999 28.9908 6 30.75C6 36.54 2.33625 39.1369 2.16188 39.2569C1.89579 39.4365 1.69438 39.6969 1.58726 39.9995C1.48013 40.3022 1.47295 40.6312 1.56677 40.9383C1.66058 41.2454 1.85045 41.5142 2.10844 41.7053C2.36643 41.8964 2.67893 41.9997 3 42H17.25C19.0092 42 20.744 41.5874 22.3148 40.7954C23.8857 40.0034 25.2489 38.854 26.295 37.4396C27.3411 36.0252 28.0409 34.3851 28.3382 32.6512C28.6355 30.9172 28.522 29.1377 28.0069 27.4556C34.1813 22.7456 43.5 14.265 43.5 6ZM23.3287 21.2906C23.9712 20.4581 24.6019 19.6738 25.2206 18.9375C26.7351 19.9607 28.0393 21.2649 29.0625 22.7794C28.325 23.3969 27.5406 24.0275 26.7094 24.6713C25.8353 23.3172 24.6828 22.1647 23.3287 21.2906ZM31.335 20.7881C30.2026 19.1902 28.8079 17.7956 27.21 16.6631C33.1688 10.1888 37.6631 8.22562 40.3163 7.68C39.7819 10.335 37.8094 14.8294 31.335 20.7881Z" fill="var(--fill-0, white)"/>
</g>
</svg>
