<svg width="20" height="20" viewBox="0 0 20 20" fill="none" xmlns="http://www.w3.org/2000/svg">
<path d="M9.1665 14.1673L10.8332 15.834C10.9973 15.9981 11.1922 16.1283 11.4067 16.2172C11.6212 16.306 11.851 16.3518 12.0832 16.3518C12.3153 16.3518 12.5452 16.306 12.7597 16.2172C12.9741 16.1283 13.169 15.9981 13.3332 15.834C13.4973 15.6698 13.6275 15.475 13.7164 15.2605C13.8052 15.046 13.8509 14.8161 13.8509 14.584C13.8509 14.3518 13.8052 14.122 13.7164 13.9075C13.6275 13.693 13.4973 13.4981 13.3332 13.334" stroke="#4A5565" stroke-width="1.66667" stroke-linecap="round" stroke-linejoin="round"/>
<path d="M11.6669 11.6671L13.7502 13.7504C14.0817 14.0819 14.5313 14.2682 15.0002 14.2682C15.469 14.2682 15.9187 14.0819 16.2502 13.7504C16.5817 13.4189 16.768 12.9693 16.768 12.5004C16.768 12.0316 16.5817 11.5819 16.2502 11.2504L13.0169 8.01709C12.5481 7.54892 11.9127 7.28595 11.2502 7.28595C10.5877 7.28595 9.95227 7.54892 9.48352 8.01709L8.75019 8.75042C8.41867 9.08194 7.96903 9.26819 7.50019 9.26819C7.03135 9.26819 6.58171 9.08194 6.25019 8.75042C5.91867 8.4189 5.73242 7.96926 5.73242 7.50042C5.73242 7.03158 5.91867 6.58194 6.25019 6.25042L8.59186 3.90875C9.35206 3.15054 10.3434 2.66755 11.4091 2.53623C12.4747 2.40491 13.5537 2.63278 14.4752 3.18375L14.8669 3.41709C15.2217 3.63124 15.6436 3.70552 16.0502 3.62542L17.5002 3.33375" stroke="#4A5565" stroke-width="1.66667" stroke-linecap="round" stroke-linejoin="round"/>
<path d="M17.4998 2.5L18.3332 11.6667H16.6665" stroke="#4A5565" stroke-width="1.66667" stroke-linecap="round" stroke-linejoin="round"/>
<path d="M2.49984 2.5L1.6665 11.6667L7.08317 17.0833C7.41469 17.4149 7.86433 17.6011 8.33317 17.6011C8.80201 17.6011 9.25165 17.4149 9.58317 17.0833C9.91469 16.7518 10.1009 16.3022 10.1009 15.8333C10.1009 15.3645 9.91469 14.9149 9.58317 14.5833" stroke="#4A5565" stroke-width="1.66667" stroke-linecap="round" stroke-linejoin="round"/>
<path d="M2.5 3.33398H9.16667" stroke="#4A5565" stroke-width="1.66667" stroke-linecap="round" stroke-linejoin="round"/>
</svg>
