<svg width="69" height="73" viewBox="0 0 69 73" fill="none" xmlns="http://www.w3.org/2000/svg">
<path d="M32.2789 62.147C32.1623 62.6405 31.8931 63.0787 31.5142 63.3918C31.1352 63.7049 30.6682 63.875 30.1874 63.8751C30.0057 63.876 29.8246 63.853 29.6483 63.8066L21.0233 61.5254C20.7832 61.4616 20.5552 61.3545 20.3495 61.2088L13.8807 56.6463C13.405 56.3106 13.0748 55.7886 12.9629 55.1953C12.8509 54.6019 12.9663 53.9858 13.2837 53.4825C13.6011 52.9792 14.0945 52.6299 14.6553 52.5115C15.2161 52.393 15.7984 52.5151 16.2742 52.8509L22.4302 57.1938L30.6941 59.381C30.9702 59.4518 31.2303 59.5797 31.4596 59.7572C31.6888 59.9347 31.8827 60.1584 32.03 60.4155C32.1772 60.6725 32.275 60.9578 32.3178 61.255C32.3605 61.5521 32.3473 61.8553 32.2789 62.147ZM68.043 34.6408C67.8661 35.2094 67.5844 35.7352 67.2144 36.1879C66.8443 36.6407 66.393 37.0113 65.8868 37.2785L59.5043 40.6548L55.4397 44.9578L44.6585 56.364C44.395 56.6425 44.0678 56.844 43.7088 56.949C43.3499 57.0539 42.9713 57.0587 42.61 56.9629L25.36 52.4004C25.0977 52.3307 24.85 52.2098 24.6296 52.0439L9.66525 40.7403L3.12103 37.2785C2.09825 36.7376 1.3204 35.7891 0.958505 34.6415C0.596611 33.494 0.680304 32.2414 1.19118 31.1591L7.88903 16.9897C8.40032 15.9076 9.29686 15.0847 10.3815 14.7018C11.4662 14.3189 12.6502 14.4075 13.6732 14.9479L19.619 18.0847L33.9042 13.7674C34.2917 13.6501 34.7026 13.6501 35.0901 13.7674L49.3753 18.0847L55.3211 14.9479C56.3441 14.4075 57.5281 14.3189 58.6128 14.7018C59.6975 15.0847 60.594 15.9076 61.1053 16.9897L67.8031 31.1591C68.0586 31.6939 68.2113 32.2769 68.2525 32.8746C68.2937 33.4722 68.2225 34.0725 68.043 34.6408ZM50.6717 43.532L43.203 37.2044C37.9364 41.7669 31.2493 42.3686 25.7077 38.6302C25.1626 38.2633 24.7024 37.7716 24.361 37.1913C24.0197 36.611 23.8059 35.957 23.7355 35.2775C23.6651 34.5981 23.74 33.9106 23.9544 33.2659C24.1689 32.6212 24.5175 32.0356 24.9746 31.5526C24.9811 31.5443 24.9883 31.5366 24.9962 31.5298L37.0874 19.1226L34.4999 18.3413L20.9101 22.4504L13.533 38.057L26.794 48.0802L42.4645 52.2236L50.6717 43.532ZM55.588 38.3308L48.2621 22.8126H39.6856L28.0311 34.7891C31.4434 37.096 36.7936 37.7319 41.5939 32.6134C41.9688 32.2136 42.4702 31.9746 43.0017 31.9425C43.5331 31.9104 44.057 32.0874 44.4725 32.4394L53.7471 40.3012L55.588 38.3308Z" fill="white"/>
</svg>
