<svg width="48" height="48" viewBox="0 0 48 48" fill="none" xmlns="http://www.w3.org/2000/svg">
<path d="M24 40H42" stroke="#14358A" stroke-width="4" stroke-linecap="round" stroke-linejoin="round"/>
<path d="M32.752 7.24347C33.5481 6.44729 34.628 6 35.754 6C36.8799 6 37.9598 6.44729 38.756 7.24347C39.5521 8.03965 39.9994 9.1195 39.9994 10.2455C39.9994 11.3714 39.5521 12.4513 38.756 13.2475L14.736 37.2695C14.2601 37.7453 13.672 38.0933 13.026 38.2815L7.28195 39.9575C7.10986 40.0077 6.92743 40.0107 6.75377 39.9662C6.58011 39.9217 6.42161 39.8313 6.29485 39.7046C6.16809 39.5778 6.07773 39.4193 6.03324 39.2457C5.98875 39.072 5.99176 38.8896 6.04195 38.7175L7.71795 32.9735C7.90639 32.3281 8.25445 31.7407 8.72995 31.2655L32.752 7.24347Z" stroke="#14358A" stroke-width="4" stroke-linecap="round" stroke-linejoin="round"/>
</svg>
