<svg width="64" height="64" viewBox="0 0 64 64" fill="none" xmlns="http://www.w3.org/2000/svg">
<path d="M50.1925 13.4725C45.3517 8.67898 38.8126 5.99303 32 6.00001H31.7325C24.8833 6.07048 18.3386 8.84084 13.5204 13.7092C8.70216 18.5775 5.99964 25.1505 6 32C6 42.75 12.645 51.765 23.34 55.5425C24.5463 55.9678 25.8369 56.0977 27.1038 55.9212C28.3706 55.7447 29.5766 55.2671 30.6207 54.5283C31.6649 53.7895 32.5166 52.8112 33.1046 51.6753C33.6926 50.5394 33.9996 49.2791 34 48C34 46.9391 34.4214 45.9217 35.1716 45.1716C35.9217 44.4214 36.9391 44 38 44H49.5525C51.3672 44.0088 53.1303 43.3967 54.5492 42.2652C55.968 41.1338 56.9572 39.5511 57.3525 37.78C57.7995 35.8118 58.0168 33.7983 58 31.78C57.9745 28.3637 57.2713 24.9863 55.9311 21.8438C54.5909 18.7012 52.6404 15.8558 50.1925 13.4725ZM21 42C20.4067 42 19.8266 41.8241 19.3333 41.4944C18.8399 41.1648 18.4554 40.6962 18.2284 40.1481C18.0013 39.5999 17.9419 38.9967 18.0576 38.4147C18.1734 37.8328 18.4591 37.2983 18.8787 36.8787C19.2982 36.4591 19.8328 36.1734 20.4147 36.0577C20.9967 35.9419 21.5999 36.0013 22.1481 36.2284C22.6962 36.4554 23.1648 36.84 23.4944 37.3333C23.8241 37.8267 24 38.4067 24 39C24 39.7957 23.6839 40.5587 23.1213 41.1213C22.5587 41.6839 21.7956 42 21 42ZM21 28C20.4067 28 19.8266 27.8241 19.3333 27.4944C18.8399 27.1648 18.4554 26.6962 18.2284 26.1481C18.0013 25.5999 17.9419 24.9967 18.0576 24.4147C18.1734 23.8328 18.4591 23.2983 18.8787 22.8787C19.2982 22.4591 19.8328 22.1734 20.4147 22.0577C20.9967 21.9419 21.5999 22.0013 22.1481 22.2284C22.6962 22.4554 23.1648 22.84 23.4944 23.3333C23.8241 23.8267 24 24.4067 24 25C24 25.7957 23.6839 26.5587 23.1213 27.1213C22.5587 27.6839 21.7956 28 21 28ZM32 22C31.4067 22 30.8266 21.8241 30.3333 21.4944C29.8399 21.1648 29.4554 20.6962 29.2284 20.1481C29.0013 19.5999 28.9419 18.9967 29.0576 18.4147C29.1734 17.8328 29.4591 17.2983 29.8787 16.8787C30.2982 16.4591 30.8328 16.1734 31.4147 16.0577C31.9967 15.9419 32.5999 16.0013 33.148 16.2284C33.6962 16.4554 34.1648 16.84 34.4944 17.3333C34.8241 17.8267 35 18.4067 35 19C35 19.7957 34.6839 20.5587 34.1213 21.1213C33.5587 21.6839 32.7956 22 32 22ZM43 28C42.4067 28 41.8266 27.8241 41.3333 27.4944C40.8399 27.1648 40.4554 26.6962 40.2284 26.1481C40.0013 25.5999 39.9419 24.9967 40.0576 24.4147C40.1734 23.8328 40.4591 23.2983 40.8787 22.8787C41.2982 22.4591 41.8328 22.1734 42.4147 22.0577C42.9967 21.9419 43.5999 22.0013 44.148 22.2284C44.6962 22.4554 45.1648 22.84 45.4944 23.3333C45.8241 23.8267 46 24.4067 46 25C46 25.7957 45.6839 26.5587 45.1213 27.1213C44.5587 27.6839 43.7957 28 43 28Z" fill="white"/>
</svg>
