<svg width="32" height="32" viewBox="0 0 32 32" fill="none" xmlns="http://www.w3.org/2000/svg">
<path d="M5.3335 26.0013V6.0013C5.3335 5.11725 5.68469 4.2694 6.30981 3.64428C6.93493 3.01916 7.78277 2.66797 8.66683 2.66797H25.3335C25.6871 2.66797 26.0263 2.80844 26.2763 3.05849C26.5264 3.30854 26.6668 3.64768 26.6668 4.0013V28.0013C26.6668 28.3549 26.5264 28.6941 26.2763 28.9441C26.0263 29.1942 25.6871 29.3346 25.3335 29.3346H8.66683C7.78277 29.3346 6.93493 28.9834 6.30981 28.3583C5.68469 27.7332 5.3335 26.8854 5.3335 26.0013ZM5.3335 26.0013C5.3335 25.1172 5.68469 24.2694 6.30981 23.6443C6.93493 23.0192 7.78277 22.668 8.66683 22.668H26.6668" stroke="#14358A" stroke-width="2.66667" stroke-linecap="round" stroke-linejoin="round"/>
<path d="M12 12.6667L14.6667 15.3333L20 10" stroke="#14358A" stroke-width="2.66667" stroke-linecap="round" stroke-linejoin="round"/>
</svg>
