<svg width="64" height="64" viewBox="0 0 64 64" fill="none" xmlns="http://www.w3.org/2000/svg">
<path d="M57.6 54.7974C57.8236 55.0945 57.9599 55.4481 57.9936 55.8184C58.0274 56.1887 57.9572 56.5611 57.791 56.8938C57.6248 57.2264 57.3692 57.5061 57.0528 57.7015C56.7364 57.8969 56.3718 58.0002 56 57.9999H8C7.62858 57.9999 7.26449 57.8965 6.94854 57.7012C6.63259 57.5059 6.37725 57.2265 6.21115 56.8943C6.04504 56.5621 5.97473 56.1902 6.00808 55.8203C6.04144 55.4504 6.17715 55.097 6.4 54.7999C8.17096 52.4255 10.5326 50.5561 13.25 49.3774C11.7604 48.0179 10.7167 46.2398 10.2559 44.2765C9.79501 42.3132 9.93852 40.2564 10.6676 38.3761C11.3966 36.4958 12.6772 34.8799 14.3411 33.7404C16.005 32.601 17.9746 31.9912 19.9913 31.9912C22.0079 31.9912 23.9775 32.601 25.6414 33.7404C27.3053 34.8799 28.5859 36.4958 29.3149 38.3761C30.044 40.2564 30.1875 42.3132 29.7266 44.2765C29.2658 46.2398 28.2221 48.0179 26.7325 49.3774C28.693 50.2248 30.4747 51.4372 31.9825 52.9499C33.4903 51.4372 35.272 50.2248 37.2325 49.3774C35.7429 48.0179 34.6992 46.2398 34.2384 44.2765C33.7775 42.3132 33.921 40.2564 34.6501 38.3761C35.3791 36.4958 36.6597 34.8799 38.3236 33.7404C39.9875 32.601 41.9571 31.9912 43.9738 31.9912C45.9904 31.9912 47.96 32.601 49.6239 33.7404C51.2878 34.8799 52.5684 36.4958 53.2974 38.3761C54.0265 40.2564 54.17 42.3132 53.7091 44.2765C53.2483 46.2398 52.2046 48.0179 50.715 49.3774C53.4451 50.5499 55.8193 52.4189 57.6 54.7974ZM6.8 31.5999C7.01012 31.7575 7.24921 31.8721 7.50364 31.9373C7.75807 32.0025 8.02284 32.0169 8.28284 31.9798C8.54285 31.9426 8.79299 31.8546 9.01899 31.7208C9.24499 31.587 9.44241 31.41 9.6 31.1999C10.8109 29.5853 12.3811 28.2749 14.1862 27.3723C15.9913 26.4698 17.9818 25.9999 20 25.9999C22.0182 25.9999 24.0087 26.4698 25.8138 27.3723C27.6189 28.2749 29.1891 29.5853 30.4 31.1999C30.5863 31.4483 30.8279 31.6499 31.1056 31.7887C31.3833 31.9276 31.6895 31.9999 32 31.9999C32.3105 31.9999 32.6167 31.9276 32.8944 31.7887C33.1721 31.6499 33.4137 31.4483 33.6 31.1999C34.8109 29.5853 36.3811 28.2749 38.1862 27.3723C39.9913 26.4698 41.9818 25.9999 44 25.9999C46.0182 25.9999 48.0087 26.4698 49.8138 27.3723C51.6189 28.2749 53.1891 29.5853 54.4 31.1999C54.5578 31.41 54.7553 31.587 54.9815 31.7207C55.2076 31.8545 55.4579 31.9424 55.718 31.9794C55.9782 32.0164 56.243 32.0019 56.4975 31.9365C56.752 31.8712 56.9911 31.7564 57.2012 31.5986C57.4114 31.4409 57.5884 31.2433 57.7221 31.0171C57.8559 30.791 57.9438 30.5407 57.9808 30.2806C58.0178 30.0205 58.0032 29.7556 57.9379 29.5011C57.8726 29.2466 57.7577 29.0075 57.6 28.7974C55.829 26.4237 53.4673 24.5551 50.75 23.3774C52.2396 22.0179 53.2833 20.2398 53.7441 18.2765C54.205 16.3132 54.0615 14.2564 53.3324 12.3761C52.6034 10.4958 51.3228 8.87987 49.6589 7.74042C47.995 6.60096 46.0254 5.99121 44.0088 5.99121C41.9921 5.99121 40.0225 6.60096 38.3586 7.74042C36.6947 8.87987 35.4141 10.4958 34.6851 12.3761C33.956 14.2564 33.8125 16.3132 34.2734 18.2765C34.7342 20.2398 35.7779 22.0179 37.2675 23.3774C35.307 24.2248 33.5253 25.4372 32.0175 26.9499C30.5097 25.4372 28.728 24.2248 26.7675 23.3774C28.2571 22.0179 29.3008 20.2398 29.7616 18.2765C30.2225 16.3132 30.079 14.2564 29.3499 12.3761C28.6209 10.4958 27.3403 8.87987 25.6764 7.74042C24.0125 6.60096 22.0429 5.99121 20.0263 5.99121C18.0096 5.99121 16.04 6.60096 14.3761 7.74042C12.7122 8.87987 11.4316 10.4958 10.7026 12.3761C9.97352 14.2564 9.83001 16.3132 10.2909 18.2765C10.7517 20.2398 11.7954 22.0179 13.285 23.3774C10.5548 24.5509 8.18063 26.4207 6.4 28.7999C6.24241 29.01 6.12776 29.2491 6.06257 29.5035C5.99739 29.7579 5.98296 30.0227 6.0201 30.2827C6.05725 30.5427 6.14524 30.7929 6.27905 31.0189C6.41287 31.2449 6.58989 31.4423 6.8 31.5999Z" fill="white"/>
</svg>
